# xmcd
#
# Track frame offsets: 
#        150
#        20844
#        41822
#        61714
#        90402
#        108407
#        128295
#        146340
#        165375
#        185882
#        207942
#        240677
#
# Disc length: 3449 seconds
#
# Revision: 3
# Processed by: cddbd v1.5.2PL0 Copyright (c) Steve Scherf et al.
# Submitted via: ExactAudioCopy v1.0b3
#
DISCID=9c0d770c
DTITLE=齐豫 - 骆驼飞鸟鱼
DYEAR=1900
DGENRE=Pop
TTITLE0=飞鸟与鱼
TTITLE1=觉(遥寄林觉民)
TTITLE2=有没有
TTITLE3=既然问起你
TTITLE4=女人与小孩I
TTITLE5=话题
TTITLE6=哭泣的骆驼
TTITLE7=幸福
TTITLE8=懒洋洋
TTITLE9=四十个无亲无故的年头
TTITLE10=叹息瓶
TTITLE11=女人与小孩II
EXTD=ID3G:   0
EXTT0=
EXTT1=
EXTT2=
EXTT3=
EXTT4=
EXTT5=
EXTT6=
EXTT7=
EXTT8=
EXTT9=
EXTT10=
EXTT11=
PLAYORDER=
